<?xml version="1.0" encoding="UTF-8"?><svg id="Calque_1" xmlns="http://www.w3.org/2000/svg" viewBox="0 0 439.91 283.36"><defs><style>.cls-1{fill:#fff;}</style></defs><path class="cls-1" d="M.05,209.1v19.9c.43-.24.65-1.26.79-1.73,1.59-5.6,1.03-9.81.16-15.4l-.94-2.77ZM331.98,283.2h14.15c-.03-.49-.89-.15-1.27-.24-.18-.04-.15-.43-.33-.47-3.35-.76-6.85-.49-10.25.01l-2.29.7Z"/><path class="cls-1" d="M341.82,0c-.28,1.31-.4,2.64-.74,3.94-1.86,7.23-6.25,10.14-13.35,11.59-2.91.59-6.18,1.23-9.09,1.7-5.34.86-13.61.62-17.8,4.26-1.55,1.34-1.56,2.38-1.06,4.36.28,1.11,1.74,2.52,2.73,3.02,4.19,2.09,9.07.39,13.31-.55,8.55-1.91,21.48-5.82,27.65-12.16,1.05-1.08,1.68-2.15,2.57-3.19,2.71-3.14,3.28-7.91,6.17-11.46.34-.42,1.36-.81,1.6-1.52h10.31c-.73,1.88-2.25,3.78-2.81,5.7-.39,1.35-1.08,4.57-1.25,5.96-.16,1.31.35,3.53-.25,4.72-.98,1.94-.87,5.34-1.5,7.66-.96,3.54-5.03,9.34-8.57,10.62-5.54,2-7.98-.66-12.86-1.78-1.6-.37-4.89-1.06-6.39-.68-.32.08-3.16,1.48-3.75,1.77-3.18,1.54-5.74,3.49-8.59,5.44-5.93,4.08-17.99,13.59-25.37,12.88-2.99-.29-5.67-2.31-7.56-4.52-1.99-2.34-4.21-8.07-4.53-10.99-.62-5.6-.71-12.48.46-17.9.04-.18.41-.17.45-.36,1.07-5.09,1.32-11.52,4.57-15.71,1-1.28,2.89-1.76,4.43-1.87,6-.42,13.78.85,19.55,2.53,5.07,1.48,9.68,4.18,14.51.12,1.2-1.01,2.01-2.23,2.76-3.6h14.39Z"/><path class="cls-1" d="M439.91,67.38c-.33.29-.55.66-.76,1.04-1.46,2.62-2.91,5.28-4.66,7.82-2.2,3.19-5.64,6.29-6.47,10.32-.92,4.45,3.96,9.76,4.64,14.33.27,1.85-.34,5.67-1.77,6.98-.37.33-1.32.64-1.46.82-.21.25-.13.93-.35,1.09-.14.1-2.93,1.04-3.3,1.13-2.35.58-7.06.87-9.42.53-3.29-.47-6.47-2.95-8.82-5.09-3.16-2.87-6.24-10.07-7.13-14.21-1.17-5.49-.19-11.91-1.93-17.02-.29-.84-2.53-5.47-2.99-6.01-.16-.18-.64-.2-.89-.42-.45-.41-1.46-2.07-2.07-2.73-2.15-2.31-4.76-3.9-6.4-6.32-1.85-2.73-4.26-6.92-2.33-10.14,2.1-3.5,8.91-5.39,12.83-5.64,9.83-.62,31.92-.42,38.74,7.32,1.22,1.39,3.15,4.15,3.88,5.72.15.32.43.63.68.88v9.59ZM418.25,58.11c-2.4-1.47-6.62-.4-9.03.53-.36.14-1.06.04-1.17.14-.11.09-.06.64-.2.87-.34.56-.68.23-.79,1.38-.26,2.52.85,4.82,2.24,6.76.14.19.53.26.75.57,1.51,2.16,2.09,4.2,2.29,6.83.39,5.09-.2,16.4,2.3,20.49.05.09,1.35,1.37,1.44,1.39,1.28.25,1.81-1.17,1.99-2.24.73-4.3-1.92-8.92-.91-14.1.82-4.2,3.54-8.56,4.82-12.44.46-1.38.98-1.87.61-3.6-.34-1.62-2.91-5.69-4.34-6.57Z"/><path class="cls-1" d="M422.16,0c-.14.46-.49.52-.83.73-4.14,2.44-8.64,3.32-13.42,2.38-1.1-.22-2.26-.95-3.3-1.26-4.19-1.23-10.03-1.73-13.8.5-.89.53-4.97,3.35-5.51,3.96-2.74,3.08-2.79,10.33-1.94,14.14.55,2.48,2.33,3.5,4.51,4.37,5.09,2.03,9.85,1.86,15.24,1.33,5.89-.57,11.87-3.58,17.86-2.05,4.83,1.23,9.81,3.25,15,2.54,1.73-.24,2.92-1.93,3.95-3.13v19.66c-6.67-.36-13.7-.84-20.03-3.11-3.09-1.11-5.93-2.81-9.38-3.33-10.32-1.55-19.19,2.65-28.5,5.74-6.63,2.2-10.43,2.1-16.19-1.82-4.49-3.05-3.86-13.96-2.82-18.63,1.68-7.55,5.55-14.66,9.53-21.12.14-.22.72-.36.72-.89h48.93Z"/><path class="cls-1" d="M439.91,113.42v11.51c-3.27.14-6.7-.2-9.95,0-1.86.11-4.95.59-6.62,1.31-.33.14-1.46,1.03-1.55,1.32-.21.6-.19,2.79-.12,3.5.08.76,1.17,3.74,1.59,4.41.94,1.5,4.66,6.64,5.92,7.62.3.24.73.17.94.33,3.09,2.21,5.9,3.85,9.79,4.3v16.55c-2.28-.58-4.67-.55-6.97-1.07-6.33-1.42-15.45-6.23-20.11-10.6-5.42-5.09-11.63-17.09-11.8-24.42-.11-4.71,1.64-6.93,4.98-9.79,8.65-7.43,19.22-6.31,29.94-5.43,1.31.11,2.65.38,3.96.48Z"/><path class="cls-1" d="M439.91,219.65c-.59.05-1.08-.33-1.62-.42-4.35-.8-8.5,1.97-12.48,3.23-4.59,1.45-12.09,3.1-16.61,1.88-2.6-.7-5.12-2.59-6.16-5.11-.67-1.63-1.72-3.38-2.21-4.99-2.69-8.9-.02-17.01,2.2-25.34.83-3.13,1.19-6.65,2.26-9.73.67-1.91,2.3-4.35,3.93-5.42.38-.25,1.17-.24,1.58-.78,2.05-.42,3.49.75,5.19,1.65,5.23,2.75,9.58,10.56,14.4,14.74.18.15.59.19.89.43,1.01.83,1.93,1.77,3.03,2.5l5.6,2.92v9.83c-2.56-.19-4.96-1.12-7.38-1.85-1.9-.58-3.94-1.09-5.81-1.87-2.72-1.14-6.17-3.66-8.82-4.37-.51-.14-2.93-.5-3.36-.39-.48.12-2.58,1.24-2.86,1.59-.35.44-.29.96-.32,1.48-.12,2.13,1.25,8.1,2.44,9.81,2.63,3.77,7.75,3.65,11.72,2.67,4.43-1.09,6.6-1.99,11.35-1.47,1.06.12,2.01.36,3.04.63v8.39Z"/><path class="cls-1" d="M45.38,0c-.36,4.19-1.97,8.9-1.93,13.08.03,3.66,1.19,7.08,1.87,10.61.45,2.34.77,4.84,1.26,6.93.34,1.46-.41,1.69-.47,1.92-.22.9-.07,2.09-.43,3.13-2.39,6.85-11.68,5.53-16.82,2.79-6.12-3.26-11.39-10.29-13.16-17.06-1.11-4.27-1.3-8.8-2.84-12.99-.7-1.9-2.3-4.34-3.35-5.99-.49-.77-1.25-1.54-1.54-2.42h37.41Z"/><path class="cls-1" d="M169.37,0c-.46,1.3-1.23.99-1.86,1.36-1.19.7-2.19,1.59-2.99,2.42-1.29,1.33-4.46,2.33-6.04,4.15-.41.48-1.81,3.15-1.83,3.69-.01.3.82,1.83.96,1.93.29.21,2.47.16,3.01.11,3.79-.35,8.97-5.15,13.13-6.54,5.2-1.74,10.75-1.59,16.13-.89,3.36.44,5.78,2.09,9.3,1.14,2.42-.65,4.3-2.18,6.26-3.45,1.32-.86,4.64-1.99,3.75-3.92h21.35c-.27.64-1.31,1.74-1.83,2.12-1.42,1.04-3.41,1.69-4.86,2.58-3.57,2.2-6.53,5.17-9.25,8.02-6.7,7.04-15.8,12.7-25.23,6.49-1.52-1-1.63-1.21-2.82-2.44-1.08-1.12-2.21-2.19-3.31-3.29-1.51.12-2.87-.69-4.36-.52-.79.09-4.56,1.61-5.4,2.04-3.55,1.79-7.71,5.73-11.17,8.02-.58.39-4.8,3.02-5.09,3.1-1.26.34-5.35,1.22-6.44,1.18-1.34-.06-2.72-.92-3.71-1.76-.23-.2-1.46-1.26-1.53-1.34-.21-.23-1.04-1.98-1.21-2.4-2.93-7.17,3.52-13.45,6.63-19.27l2.36-2.55h16.07Z"/><path class="cls-1" d="M93.34,0c.94,2.3.62,6.22-.54,8.45-.14.27-1.56,2.2-1.68,2.28-.15.1-3.21,1-3.43,1.01-1.64.07-3.87-.59-5.5-.7-2.56-.18-5.26.3-7.61,1.01-3.79,1.14-8.32,5.57-10.19,9-1.31,2.41-1.76,5.46-3.32,7.71-.24.34-2.07,2.36-2.41,2.62-2.7,2.08-7.28.03-8.81-2.64-.89-1.57-.74-3.53-.6-5.33.51-6.64,2.98-13.64,2.62-20.42-.05-.98-.4-2.01-.49-2.99h41.97Z"/><path class="cls-1" d="M149.95,0c-2.08,2.65-4.03,5.46-6.71,7.55-3.75,3.98-9.43,7.78-14.82,9.16-3.34.86-5.63,1.13-8.77-.45-5.49-2.75-6.36-6.32-9.51-10.94-1.26-1.85-2.43-3.82-4.07-5.33h43.89Z"/><path class="cls-1" d="M439.91,165.94v13.67c-.43-.75-.73-1.53-1.23-2.25-.43-.62-1.77-2.49-2.2-2.96-1.86-2.03-6.24-3.41-8.8-4.27-1.07-.36-3.24-1.28-4.19-1.33-1.34-.07.4,1.39.46,1.47,2.86,3.82,5.46,6.39,8.66,9.56,1.99,1.97,4.01,5.68,7.31,4.8v6.71c-.73-.03-1.66-.39-2.33-.67-7.92-3.33-11.78-8.88-16.9-15.23-2.75-3.42-3.91-3.61-7.08-6-3.6-2.72-7.24-6.14-6.8-11.08.46-5.25,5.24-2.8,8.22-1.48,5.97,2.64,11.81,5.88,18.17,7.74,2.07.6,4.59,1.03,6.72,1.31Z"/><path class="cls-1" d="M439.91,263.06v9.59c-.73.48-.87,1.45-1.33,2.16-.93,1.44-1.92,2.8-2.63,4.56-.5,1.25-.99,2.45-.84,3.83h-14.39c-.31-1.23-.29-2.46.03-3.69.91-3.49,5.83-4.54,8.11-6.76s3.52-5.34,6.03-7.4c1.29-1.06,3.33-2.2,5.02-2.29Z"/><path class="cls-1" d="M439.91,222.29v6.47l-2.34.78c-.45.84-.58,2.09-.03,2.92.19.29.58.37.78.65.43.58.73,1.42,1.59,1.65v7.19c-3.87-1.1-6.41-3.74-8.96-6.63-.29-.32-.87-.57-1.25-1.03-1.27-1.57-2.4-4.85-1.74-6.79,1.27-3.75,6.73-5.32,10.39-5.45.53-.02,1.02.23,1.55.25Z"/><path class="cls-1" d="M439.91,106.95c-2.5-2.93-5.24-5.45-5.73-9.5-.72-5.95,1.51-12.22,4.21-17.31.51-.97.85-2.04,1.52-2.93v29.73Z"/><path class="cls-1" d="M439.91,243.39v17.98c-.46-.08-1.43-1.14-1.56-1.44-.21-.47-.04-.87-.13-1.27-.05-.21-.48-.16-.61-.62-.41-1.43.3-5.05-.13-7.31-.26-1.37-1.48-3.28-1.58-4.13-.03-.28.34-2.29.47-2.43.06-.06,1.42-.76,1.5-.78.61-.12,1.39.07,2.04,0Z"/><path class="cls-1" d="M320.71,0c-.33.32-1.27,1.29-1.61,1.39-.29.09-3.72.28-4.24.26-1.46-.04-4.75-.44-6.25-.71-.73-.13-2.15-.53-2.77-.94h14.87Z"/><path class="cls-1" d="M439.91,283.2l-2.64-.12c.02-1.05.82-1.41,1.1-2.01.56-1.2.61-2.77,1.54-3.62v5.76Z"/><path class="cls-1" d="M131.53,104.02c1.14.65,2.29.98,3.6,1.97,5.13,3.87,9.57,8.75,14.6,13.04,9.68,8.26,18.64,13.71,30.97,17.23,13.23,3.78,27.61,6.08,41.34,8.31,4.24.69,8.31.55,12.5,1.41,16.2,3.32,28.53,13.45,39.02,25.5,2.61,3,5.19,7.08,7.58,10.58.19.29,1.01.79,1.11.98,6.52,11.88,6.35,25.57.91,37.82-2.75,6.19-8.02,15.71-14.05,19.52-.62.39-4.35,2.55-4.76,2.67-3.36,1.01-10.08-.61-13.49-1.64-7.73-2.32-11.65-4.75-17.29-10.41-.91-.91-2.08-1.71-2.96-2.67-3.27-3.59-6.5-7.33-9.16-11.22-8.45-12.36-17.22-24.58-28.18-35.01-3.22-3.06-7.16-5.46-10.68-8.15-13.37-10.24-25.34-20.76-42.87-23.08-5.93-.78-12.22-.93-18.21-1.22-7.63-.37-15.15-1.04-22.76-1.7-6.8-.59-14.01-1.32-20.88-1.66-10.41-.52-23.09,1.24-32.03-4.9-.43-.29-2.86-3.29-3-3.72-.14-.46-.52-3.64-.5-4.17.07-1.82.77-3.91,1.23-5.67.6-.56,2.31-4.86,2.55-5,.27-.16.82.04,1.15-.05-.04-.7.57-1.82,1.04-2.32,5.89-6.42,13.15-11.33,21.46-14.63,7.99-3.17,16.66-5.82,25.19-7.43,12.32-2.33,24.06-3.51,34.95,4.01.49.34,1.51,1.56,1.61,1.62ZM131.39,122.15c-7.13-3.75-15.74-7.22-23.49-9.49-10.78-3.17-25.86-2.25-34.92,4.76-1.37,1.06-2.5,2.93-3.83,4.08.13.79-.29,1.88-.23,2.55.01.16.44,1.94.49,2.03.17.31,2.52,2.53,2.94,2.94,1.99,1.91,5.26,2.72,7.99,3.52,7.45,2.19,16.1,4.2,23.65,5.85,15.01,3.29,30.69,3.24,45.56,6.72,12.08,2.82,23,8.25,33.44,14.03,13.01,7.2,23.53,17.35,34.68,26.24,7.27,5.79,13.82,11.98,21.98,16.63,1.71.98,5.12,2.98,6.92,3.39,2.82.65,4.43-.16,5.23-2.95,1.14-3.97.21-5.29-.74-8.98-2.53-9.81-4.59-14.88-12-21.93-2.45-2.33-5.78-5.3-8.39-6.96-7.21-4.58-14.44-8.5-22.41-11.29-5.74-2.01-11.73-2.36-17.61-3.49-17.79-3.43-33.23-11.84-48.19-21.12-.72-.45-2.57-1.24-3.08-1.72-.27-.26-.18-.7-.28-.79-.13-.11-.77,0-1.15-.17-1.91-.84-4.66-2.85-6.57-3.86Z"/><path class="cls-1" d="M352.18,63.49c.18.11,3.67.73,4.15.78,3.3.35,6.74-.35,10.03-.15,4.95.3,14.34,2.83,18,6.07,2.76,2.44,4.9,4.83,6.51,8.47,2.58,5.85,3.65,13.44,4.98,19.72,1.46,6.88,4.32,15.58,2.76,22.54-.32,1.41-.7,1.74-1.55,2.66-.11.12.02.43-.24.63-2.3,1.69-6.7.63-9.11-.43-4.45-1.97-8.07-6.86-11.01-10.57-11.09-14.04-22.78-25.51-42.42-26.65-8.02-.47-14.09.24-20.54,4.9-4,2.9-7.61,6.62-11.36,9.97-11.46,10.24-17.91,20.35-35.43,16-4.14-1.03-9.13-3.77-11.94-6.99-4.9-5.62-4.39-9.45-5.04-16.79-.86-9.64-2.08-19.85,2.67-28.7,1.6-2.97,3.51-4.94,6.48-6.52,12.27-6.54,24.08-3.52,36.72-.08,5.51,1.5,11.75,3.7,17.57,3.28,3.34-.24,7.33-.31,10.55-.72,1.83-.23,3.73-1.2,5.3-1.41,5.99-.83,13.36-.58,18.82,2,1.44.68,2.84,1.23,4.11,2ZM372.92,79.93c-3.83-3.08-11.8-3.68-16.57-4.66-5.28-1.08-10.45-2.53-15.86-3.09-6.6-.68-12.61.18-19.18.48-13.61.62-26.31-1.51-39.56-3.37-2.65-.37-7.75.04-10.26,1.03-.37.15-3.58,1.99-3.72,2.16-.16.2-.12.7-.32.99-1.88,2.75-3.18,6.19-3.55,9.64-.49,4.61,2.52,9.71,5.81,12.72.26.24,2.76,1.89,2.97,1.95,1.02.29,4.11.37,5.22.29,10.41-.83,20.05-8.29,28.65-13.32,5.35-3.13,14.62-7.84,20.75-8.27,12.44-.86,26.61,2.83,36.02,10.89,4.74,4.05,9.15,10.56,14.41,13.41.38.21.44,1.05,1.84.66,1.09-3.61.1-7.27-.98-10.75-.64-2.07-1.37-4.1-2.37-6.02-.65-1.25-2.3-3.96-3.28-4.75Z"/><path class="cls-1" d="M157.46,227.97c1.18.69.91.6,1.84,1.41,2.76,2.4,3.47,3.06,3.81,6.98.99,11.21-6.17,21.13-13.16,28.92-3.2,3.56-6.48,6.98-10.43,9.78-2.35,1.67-5.64,3.31-7.87,5.03-.94.72-2.15,2.21-2.98,3.12l-47.77-.03c-.39-2.36-.55-4.24-1.61-6.42-2.05-4.21-5.97-6.14-9.66-8.81-.38-.28-.79-.88-1.35-1.29-4.16-2.99-8.92-4.61-12.83-8.04-1.22-1.07-3.29-3.09-3.88-4.51-1.35-3.26-.84-7.66.92-10.69,3.08-5.3,10.82-7.86,16.63-9.03,10.55-2.13,20.08-.27,30.59-1.07,11.52-.88,23.44-3.23,35.01-4.81,6.58-.9,13.64-2.57,20.38-1.65.32.04,1.65.39,1.89.51.32.16.36.51.48.58ZM136.91,241.08c-.29-.28-1.57-.92-1.98-1.02-6.76-1.67-15.37,3.7-22.07,4.99-7.29,1.41-15.24.41-22.1,3.08-1.82.71-5.67,2.1-6.78,3.54-.7.91-.9,2.18-.66,3.31.04.18.65,1.51.72,1.56.19.13.64.02.89.18.59.38,1.19,1.24,1.64,1.55,3.35,2.33,5.65,3.26,8.31,6.73,2.31,3.02,2.62,5.1,3.85,8.38.35.92,1.9,4.48,2.68,4.75,1.49.51,4.7-.9,5.9-1.87,6.67-5.4,13.17-10.6,19.72-16.08,4.41-3.69,8.66-7.47,10.26-13.24.44-1.6.95-4.59-.38-5.86Z"/><path class="cls-1" d="M322.71,133.25c3.18,2.53,5.73,4.5,8.48,7.58,3.44,3.84,6.23,13.36,5.08,18.5-1.08,4.84-3.08,5.56-5.98,8.64-2.04,2.17-3.68,4.63-5.52,6.9-3.58,4.43-4.53,5.41-5.02,11.58-.39,4.85.9,14.32-2.63,18.17-.3.33-.73.27-.91.47s-.16.71-.65,1.15c-.99.89-3.3,1.31-4.33,2.17-5.8-.47-10.28-4.04-13.42-8.68-3.52-5.2-5.37-11.77-9.01-16.65-5.1-6.84-9.82-12.89-15.83-18.94-1.41-1.42-3.21-3.73-4.75-4.92-.59-.45-1.79-.87-2.36-1.29-6.67-4.96-12.91-9.12-19.78-13.91-2.32-1.62-4.31-2.36-6.06-4.97-.93-1.38-2.71-4.7-2.74-6.32-.01-.72.38-2.82.89-3.31.25-.24.68-.17.85-.4.22-.3.11-.76.59-1.34.92-1.1,4.28-2.31,5.72-2.68,3.95-1.01,7.96-.9,11.92-1.04,5.79-.2,11.47-.75,17.28-.95,9.4-.32,21.56.51,30.92,1.95,7.86,1.21,11.35,3.59,17.25,8.29ZM315.12,157.96c1.5-2.25,1.39-5.42.43-7.84-.63-1.58-3.82-6.82-5.16-7.55-5.65-3.04-13.63-5.19-20-6.38-9-1.67-16.59-2.47-25.73-1-1.13.18-4.94.21-5.3,1.42-.15.5.15,2.11.42,2.54.12.19,2.58,2.68,2.88,2.93.61.52,1.33.77,1.91,1.21,9.07,6.8,17.2,13.84,25.34,21.68,4.15,3.99,7.75,9.2,12.6,12.56.9.62,3.47,2.01,4.4,2.08,1.82.15,3.35.29,4.45-1.33,2.22-3.26.08-9.67.5-13.65.35-3.33,1.65-4.27,3.26-6.68Z"/><path class="cls-1" d="M229.09,283.2c0-3.88.18-8.26,1.33-11.98.32-1.06,3.02-6.19,3.75-7.28,2.24-3.31,7.61-7.88,11.41-9.21,11.06-3.87,23.29,1.44,34.3-2.39.52-.18,2.11-.69,2.43-.92s2.33-2.62,2.67-3.09c4.28-6.03,4.79-14.13,7.71-21.06,3.73-8.85,11.47-11.92,20.77-8.88,5.17,1.69,6.46,4.85,7.6,9.9,1.28,5.66.22,11.88.58,17.64.11,1.79,1.28,8.1,2.25,9.38,2.43,3.19,5.14,5.16,6.05,9.42.96,4.53.08,10.87-2.81,14.49-.69.86-4.47,3.98-5.6,3.98h-37.06c.09-.53,1.12-.55,1.37-.78,1.22-1.12,2.52-2.42,3.99-3.45,7.33-5.1,17.77-8.01,16.94-19.15-.21-2.87-2.57-6.32-5.62-6.61-4.72-.44-8.37,3.2-10.56,6.98-3.34,5.77-13.07,11.47-19.94,13.15-3.96.97-8.57.47-12.39,2-4.03,1.62-6.77,4.1-9.53,7.27-.15.17-.23.37-.24.59h-19.43Z"/><path class="cls-1" d="M349.18,174.88c.15.22.03.65.19.89.1.14,1.82,1.38,2.49,2.32,3.51,4.87,5.81,13.09,6.93,19.21.2,1.08-.05,3.48,1.02,3.66l-.48.35v.48c.96.85.57,3.61.73,5.03.57,5.14,1.57,10.91,3.1,15.85,2.92,9.46,7.97,18.1,9.79,28.1.44,2.44.2,6.3.79,8.28.06.22.43.08.49.51.05.34-.63,5.13-.76,5.99-.43,2.86-3.79,11.72-5.84,13.58-.42.38-.96.45-1.23.7-1.11,1.06-2.44,3.04-4.08,3.35-1.38.26-9.8.22-11.2-.05-2.39-.45-7.01-4.57-8.69-6.41-8.29-9.09-12.52-19.8-14.02-32.02-.3-2.47-.98-7.07-.98-9.35-.01-5.43,1.6-15.46,3.07-20.69s3.71-10.61,3.9-16.24c.05-1.46-.4-2.54-.47-3.84-.21-3.97-.26-7.36,0-11.27.14-2.12,0-5.42.49-7.38.03-.11,1.02-1.75,1.19-1.97,1-1.29,3.35-2.08,4.93-2.01.44.02.76.39,1.2.44,2.34.25,5.97.24,7.47,2.48ZM352.21,217.18c-.94-1.88-1.61-3.97-3.9-4.57-.92-.24-2.26-.12-2.98.54-.33.31-.84,3.54-.89,4.21-.29,4.04.9,7.78,1.23,11.51.25,2.9.38,7.61,0,10.57-.06.46-.46.23-.52.69-.16,1.25-.16,5.26,0,6.51.06.46.46.23.52.69.78,6.2.36,11.38,3.59,17.22.16.29,1.01,1.06,1.14,1.29.2.36.16,1.01.34,1.23.15.17.59.15.84.36.18.16.2.56.55.76,1.63.96,3.61,0,4.65-1.33,1.38-1.78,1.82-3.66,2.61-5.67.04-.11.47-.14.6-.47,1.26-3.08,1.14-9.56.74-12.88-.27-2.27-1.09-4.24-1.44-6.23-1.01-5.69-3.45-10.91-4.94-16.4-.58-2.15-.76-5.56-1.5-7.37-.21-.52-.58-.55-.64-.67Z"/><path class="cls-1" d="M.05.96c2.37,1.71,4.64,2.9,6.47,5.22,6.85,8.67,9.02,21.44,9.61,32.3.3,5.57-1.05,10.32-2.11,15.66-1.94,9.74-4.08,18.52-4.85,28.48-.48,6.21-.81,13.37-.02,19.43.71,5.44.7,8.04,3.77,12.65,6.63,9.96,15.96,17.8,25.06,25.67,2.5,2.17,5.67,4.08,7.09,7.3.76,1.74,1.96,5.31,1.94,7.12-.01,1.17-.5,1.62-.83,2.35-2.5,5.46-5.2,8.86-10.04,12.62-3.84,2.99-6.54,4.64-11.38,5.89-7.51,1.94-14,1.79-21.4-.44-1.06-.32-2.43-.83-3.31-1.49v-17.15c.69-.13,1.04.47,1.54.73,3.15,1.66,9.13,3.79,12.8,4.94,4.33,1.36,9.67,1.29,12.88-2.31.21-.23,1.47-1.73,1.51-1.85.27-.74.96-3.33.95-4.03-.02-2.49-1.16-2.22-2.57-3.38-2.32-1.92-4.61-3.59-7.13-5.33-6.03-4.15-11.61-8.61-17.33-12.89-.82-.62-1.59-1.46-2.66-1.78V.96Z"/><path class="cls-1" d="M235.97,48.28c10.9,9.64,8.74,30.04,8.22,43.19-.3,7.78-.47,16.03-1.7,23.72-.29,1.82-2.32,7.23-3.46,8.54-.21.25-.61.17-.76.3-.21.17-.19.66-.44.88-1.6,1.47-5.05,2.66-7.19,2.42-1.19-.13-6-2.07-7.06-2.77-.59-.4-.89-1.03-1.32-1.56-2.64-3.26-4.62-7.31-4.94-11.84-.24-3.4-.11-6.38-1.31-9.72-1.96-5.46-4.92-5.35-10.07-5.52-3.93-.13-8.48.14-12.47.48-4.41.37-7.88,1.73-12.4.41-1.26-.37-1.2-.54-2.02-1.09-.38-.25-2.05-1.28-2.19-1.53-.08-.13-.51-2.58-.53-2.94-.38-4.68,1.91-12,5.02-15.55,5.74-6.54,11.69-12.33,18.5-17.76,4.52-3.61,14.12-9.82,19.76-11.9,5.08-1.87,12.22-1.42,16.36,2.25ZM228.55,58.82c-.21-.17-2.68-1.24-2.95-1.27-.25-.02-2.64.43-3.04.53-7.69,1.92-17.08,9.39-21.28,16.08-.78,1.24-1.68,2.42-2.04,4-.58,2.54.7,2.41,1.96,3.68.17.17.05.7.47.85.15.05,2.67.22,3.09.22,1.43.02,2.99-.27,4.55-.19,8.76.46,11.02,3.22,16.68,8.74.58.57,1.34,1.83,2.31,2,.14.02,1.4-.46,1.52-.55.22-.19.99-2.58,1.25-3.08.77-1.52,1.94-3.16,2.53-4.9,2.6-7.66,1.71-20.72-5.04-26.13Z"/><path class="cls-1" d="M141.48,161.94c5.65,2.43,11.47,5.4,17.17,8.12,14.13,6.74,30.46,12.7,34.6,29.68.77,3.15.03,6.45-1.08,9.49-2.26,6.17-10.61,4.07-14.37.44-1.16-1.12-1.83-2.7-2.8-3.92-6.14-7.7-13.06-14.89-20.89-20.96-9.34-7.24-24.43-13.68-36.01-17.11-23.84-7.08-42.19-1.75-63.42,9.07-2.78,1.42-5.39,2.01-8.71,1.66-3.5-.37-3.91-3.39-2.87-6.23,1.12-3.08,4.83-6.69,7.44-8.63,7.12-5.3,14.97-9.22,23.32-11.93,9.32-3.02,17.94-2.02,27.33-.6,13.68,2.07,27.66,5.5,40.28,10.93Z"/><path class="cls-1" d="M81.19,62.98c2.15,1.54,3.77,2.58,5.44,4.75,4.48,5.8,8.76,18.03,5.32,24.99-1.1,2.22-3.41,3.4-5.49,4.47-8.94,4.58-19.82,5.87-28.47,11.1-4.67,2.82-8.86,6.83-14.18,8.73-9.12,3.25-19.28-1.79-25.97-7.44-.89-.75-1.33-1.45-1.98-2.03-.19-.16-.62-.12-.83-.37-1.29-1.49-1.72-6.79-1.56-8.75.52-6.12,7.5-17.57,11.17-22.64,6.84-9.44,16.54-19.59,29.23-20.42,11.26-.73,18.41,1.22,27.31,7.6ZM76.45,76.13c-6.69-7.54-15.4-11.86-25.37-7.72-9.35,3.88-14.87,13.08-19.21,21.54-.89,1.74-1.13,4.3-.5,6.19.17.49,2.08,2.95,2.49,3.27.72.57,5.66,2.71,6.64,2.95,5.01,1.23,8.36-1.85,12.63-3.86,3.98-1.87,8.24-3.89,12.59-4.92,5.39-1.27,9.74-.05,12.39-6.32,1.71-4.04,1.23-7.89-1.65-11.14Z"/><path class="cls-1" d="M105.72,12.33c1.82.89,6.4,4.45,8.06,5.9,1.36,1.19,2.69,2.49,3.94,3.68,2.18,2.08,2.83,3.7,5.95,4.73,6.11,2.01,13.26.51,19.61,2.21,1.82.49,5.27,1.61,6.88,2.47.42.22,3.69,2.59,3.79,2.8.16.33.58,2.72.57,3.17-.01.67-.54,3.19-.87,3.71-.21.34-1.24,1.13-1.65,1.7-1.82,2.56-2.7,3.98-5.18,6.09-2.78,2.36-6.1,4.66-8.52,7.55-2.25,2.68-2.95,6.78-6.37,8.75-3.82,2.2-9.39,1.96-13.46.56-3.15-1.08-5.08-3.49-7.49-5.7-1.47-1.35-3-2.67-4.57-4.07-8.75-7.83-20.61-9.89-31.6-12.77-1.4-.37-8.22-2.92-9.05-3.67-.26-.23-.18-.61-.31-.76-.18-.21-.65-.2-.88-.44-.74-.79-2.29-2.97-2.34-4.01-.02-.46.52-3.11.71-3.59,2.2-5.74,12.71-12.25,18.16-14.45,7.3-2.95,16.97-7.62,24.61-3.86ZM101.6,32.75c-2.65-2.35-3.77-4.21-7.23-5.84-3.79-1.79-9.25-.93-12.62,1.18-1.65,1.04-3.47,2.66-3.27,4.85.09.94,1.15,2.15,1.93,2.65,2.56,1.65,5.86,1.96,8.67,2.84,4.71,1.48,10.66,3.65,14.84,6.26,1.97,1.23,3.79,3.27,5.75,4.32,4.67,2.52,8.39,2.63,13.33.67,1.46-.58.99-.89,1.52-1.35.19-.16.58-.12.82-.39,1.08-1.16,1.33-3.41,1.63-4.85.1-.5.55-.99.58-1.53.02-.3-.14-2.07-.21-2.32-.03-.11-1.31-1.65-1.41-1.71-2.45-1.74-8.35-.38-11.37-.37-5.2.02-9.13-1.02-12.98-4.42Z"/><path class="cls-1" d="M344.6,93.86c4.5,1.96,7.79,4.07,11.19,7.49,7.39,7.41,15.16,16.71,24.32,22.1,5.53,3.26,12.45,6.37,17.23,10.59,1.76,1.55,4.38,5.45,4.44,7.81,0,.29-.21,1.8-.31,1.97-.07.12-.43.16-.51.32-4.71,8.43-16.87,13.28-26.35,10.48-1.79-.53-8.66-3.87-9.94-5.05-4.12-3.81-6.54-9.35-10.99-13.11-3.91-3.31-9.78-6.4-14.5-8.52-9.52-4.29-22.67-3.46-27.64-14.57-1.77-3.96-3.43-8.19-2.03-12.57.78-.33.82-1.12,1.25-1.74,2.11-3.05,5.39-6.42,8.81-7.97,2.74-1.24,6.4-1.02,9.41-.92,5.95.2,10.2,1.35,15.61,3.71ZM352.21,112.39c-6.38-5.63-16.37-11.35-25.16-9.52-.75.16-3.33,1.07-3.72,1.55-.75.94-.86,3.39-.4,4.51.12.29.87,1.97.94,2.05.09.1,1.84,1.21,2.17,1.49,3.83,3.3,4.48,3.16,9.12,4.36,5.63,1.46,10.72,2.62,15.6,5.99s7.85,7.88,11.44,12,10.4,8.94,16.03,9.25c.42.02,2.77-.27,2.89-.46.53-.87-.31-1.35-.43-1.59-.12-.26-.1-.63-.26-.84-3.37-4.61-9.77-9.1-13.34-13.81-5.64-4.58-9.48-10.21-14.88-14.98Z"/><path class="cls-1" d="M187.94,23.88c4.01,4.33,11.85,13.42,13.28,18.98,1.26,4.91.3,8.18-2.48,12.28-1.05,1.54-3.56,3.86-4.98,5.21-5.54,5.26-13.75,9.9-17.62,16.31-.41.67-1.1,2.63-1.54,3.13-.8.88-.38.06-1.19,1.57-1.33,2.46-4.23,9.34-5.69,11.04-.22.25-.63.17-.85.4-.32.33-.23.92-.42,1.15-.18.21-2.44,1.85-2.85,2.07-1.42.75-4.52,1.33-6.1,1.12-.23-.03-2.41-.74-2.73-.86-2.78-1.04-5.21-5.42-6.73-7.84-3.04-4.84-6.04-10.07-6.48-16.12-.23-3.19-.4-12.42,1.56-14.77.89-1.07,2.56-2.23,3.68-2.86,4.55-2.56,9.66-3.98,14.16-6.54.46-1.13,1.76-2.24,2.44-3.42,1.69-2.91,2.32-6.16,3.43-9.28.43-1.2.65-1.92.94-3.14.92-3.82,1.23-7.46,3.68-10.71,1.6-2.13,5.55-4.54,8.27-3.99,3.54.71,5.93,3.77,8.24,6.27ZM185.29,46.44c-1.34-1.99-2.88-3.61-5.15-4.57-1.26-.53-2.86-.93-4.04-.01-.1.08-1.31,2.13-1.35,2.25-.41,1.26-.75,2.74-1.23,4.04-2.19,5.94-4.61,9.09-9.63,12.66-.29.2-.37.59-.67.78-2.71,1.74-7.42,2.82-9.19,5.73-1.94,3.18,1.29,6.45,2.03,9.41.41,1.61.23,3.31,1.14,4.86.36.61,2.01,2.15,2.64,2.07.22-.03,1.68-.79,1.94-.97,3.44-2.39,6.52-12.02,9.67-15.76,2.82-3.34,7.18-5.82,10.31-8.98,2.12-2.14,5.22-6.39,4.57-9.56-.15-.73-.7-1.44-1.04-1.95Z"/><path class="cls-1" d="M136.04,283.2c.78-.65,1.52-1.69,2.23-2.33,3.44-3.11,6.68-6.16,10-9.29,4.11-3.88,8.88-7.88,13.44-11.27,8.64-6.43,19.76-11.43,29.93-14.92,9.67-3.32,16.07-2.47,24.77,2.42,2.77,1.55,6.12,3.28,7.11,6.56,1.91,6.32-2.82,11.73-5.87,16.79-.32.52-.6.93-.92,1.47-1.95,3.28-3.67,6.88-4.66,10.58h-18.71c.57-1.83.07-3.6,0-5.38-.1-2.07.02-5.14-.83-7.09-1.03-2.37-2.74-2.31-5.05-2.17-3.64.22-10.75,5.05-13.86,7.25s-6.43,4.74-9.15,7.39h-28.42Z"/><path class="cls-1" d="M142.41,186.67c8.21,4.36,15.53,10.01,20.69,17.8,3.25,4.91,5.96,14.12.12,18.03-1.22.81-4.82,1.16-6.43,1.25-9.16.5-18.64-.47-27.84-.26-2.28.05-4.89.44-7.18.5-8.86.23-17.76.61-26.56-.8-.7-.44-1.84-.89-2.47-1.37-1.47-1.15-2.18-2.78-2.06-4.67.03-.39.58-1.78.79-2.11,1.6-2.54,5.85-3.61,8.47-4.48,6.42-2.13,12.77-3.29,19.31-4.91,1.72-.43,3.39-1.34,4.97-2.11.59-1.99-.6-3.91-1.87-5.35-3.4-3.83-8.69-5.79-12.14-10.27-1.21-1.57-1.78-3.54-.53-5.28s4.26-2.64,6.32-2.79c8.33-.59,19.09,2.94,26.4,6.82ZM151.06,203.68c-4-2.51-9.38.84-11.63,4.38-.28.44-.14.94-.75,1.2v.63c.82.49,1,2.15,1.56,2.8,1.01,1.17,3.99,1.97,5.5,1.93.96-.03,3.92-.98,4.86-1.4.34-.15,2.73-1.66,2.94-1.86.66-.61.52-2.82.32-3.66-.23-.99-1.99-3.52-2.8-4.03Z"/><path class="cls-1" d="M214.61,215.2c3.54,3.88,5.9,8.64,9.29,12.41,1.33,1.48,3,3.55,4.59,5,1.99,1.81,4.43,2.83,6.58,4.46.65.49,4.51,3.62,4.75,4,.37.58,1.27,2.8,1.39,3.52.22,1.32.08,2.66-.98,3.6-1.51,1.32-4.31,1.36-6.22,1.21-3.93-.32-9.06-3.22-12.66-5.08-.34-.18-.82-.13-1.12-.32-8.63-5.73-16.52-6.9-26.88-4.31-4.86,1.22-9.06,2.41-14.3,2.97-3.26.34-6.51.62-9.26-1.4-1.38-1.01-3.36-3.67-3.94-5.24-1.29-3.5-1.46-11.13,1.25-13.95,6.38-6.66,19.37-.98,26.58-6.99.52-.43.86-1.33,1.18-1.57,1.33-1.03,4.01-2.97,5.47-3.77,6.13-3.34,10.34,1.16,14.28,5.47ZM209.03,229.66c-6.16-4.55-19.11-4.2-25.72-.51-.32.18-2.9,2.06-3.03,2.24-.87,1.2-.23,1.63,1,1.91,4.55,1.06,7.37-.49,11.41-1.5,5.15-1.28,10.17-1.97,15.44-1.61.59.04,1.69,1.04,1.54-.46-.2,0-.47.05-.64-.07Z"/><path class="cls-1" d="M347.43,135.86c3.28,3.28,5.59,7.04,8.43,10.63,2.97,3.75,10.45,8.72,14.93,10.25,4.7,1.61,11.39.51,16.17-.7,2.17-.55,5.19-1.93,7.24-2.11,2.73-.24,7.32-.37,9.42,1.21.2.15.57.13.72.3.61.71.99,4.29,1.26,5.34.71,7.82,2.31,21.09-8.54,22.15-3.96.39-5.28-1.39-8.27-3.18-.87-.53-2.08-.94-3.04-1.52-7.74-4.73-17.77-13.52-27.52-12.3-1.31.16-1.41.43-3.1.5-.93.04-3.11.95-4.4,1.12-6.65.9-9.52-1.55-11.16-7.9-.54-2.09-.44-4.72-1.04-6.64s-1.02-4.14-1.82-6.08c-1.7-4.13-4.84-5.7-4.25-11.06.46-4.15,5.89-5.05,9.16-3.68,2,.83,4.3,2.18,5.79,3.68ZM345.07,143.99c-.75-.9-1.44-1.77-2.41-2.44-.22.06-.5.13-.62.33-.94,1.5,1.75,5.82,2.42,7.39s1.25,3.8,1.94,5.2c.19.38,2.07,3.4,2.24,3.56.46.42,2.49,1.12,3.09.92.07-.02,1.05-1.01,1.07-1.08.16-.48.08-1.48-.12-1.96-.68-1.65-3.02-4.21-4.11-5.96-1.24-1.99-1.99-4.14-3.5-5.96ZM384.61,168.72c1.63,1.05,7.69,4.13,9.39,4.4,4.01.65,4.12-4.17,2.03-6.35-3.01-3.15-6.81-1.77-10.43-1.54-1.7.11-3.46-.1-5.16,0-.59.58,1.97,1.75,2.38,2.05.54.39,1.24,1.09,1.79,1.44Z"/><path class="cls-1" d="M425.44,232.21c.98.93,1.47,2.11,2.14,3.02.3.42,1.17.7,1.46,1.06,4.98,6.18,8.05,14.6,6.01,22.75-1.01,4.03-5.06,9.58-7.96,12.43-.36.35-.92.13-1.32.36s-.83,1.28-1.85,1.5c-3.58.8-6.53.54-10.01-.44-7.37-2.08-12.69-6.89-19.74-8.8-7.14-1.93-12.86-2.36-17.03-9.34-.54-.91-3.68-7.11-3.79-7.74-.23-1.4-.22-3.74-.12-5.17.41-6.12,5.23-8.26,10.32-10.3,11.56-4.62,31.86-8.82,41.89.68ZM410.84,236.26c-.2-.12-4.01-.51-4.62-.55-4.03-.27-14.01,1.3-16.29,5.06-.27.44-.24,1-.39,1.24-.29.43-1.47,1.66-1.66,2.05-.55,1.15-.73,4.58-.34,5.78.06.2,2.3,2.87,2.49,3.02.65.5,3.31,1.51,4.24,1.75,2.35.63,4.58.93,6.95,1.93,4.6,1.95,11.26,6.94,16.05,7.45,4.36.47,8-2.95,9.2-6.82.58-1.89-.07-6.22-.7-8.15-.77-2.38-5.33-7.77-7.33-9.46-.81-.68-2.93-1.7-3.96-2.04-1.65-.53-2.15-.33-3.65-1.26Z"/><path class="cls-1" d="M274.35,26.79c-.77,1.71-.89,4.79-.4,6.85.85,3.49,2.56,7.53,3.08,11.35.4,2.91.26,5.26-2.44,6.86-3.25,1.92-8.84,1.63-12.36.5-1.96-.63-5.05-2.36-6.71-3.48-1.07-.72-2.01-3.26-2.52-4.2-3.73-6.89-2.93-15.81-7.16-22.88-3.38-5.66-10.99-9.76-10.78-17.1.06-2.07,1.73-3.1,3.52-3.46,5.78-1.16,11.74-.77,17.46.22.87.15,2.43,1.03,3.39,1.17,2.22.33,5.31,0,7.66.26,2.63.29,7.15,1.56,8.6,3.87,3.36,5.33.44,10-.75,15.49-.2.91-.4,4.08-.62,4.55ZM260.49,13.47c-.14-.13-.7.03-1-.09-.39-.15-.59-.56-.97-.72-1.87-.79-4.92-.89-7.01-.91s-.39,1.96.26,2.87c.23.32.71.42.78.54.14.24-.03.68.08.86.11.17.69.11.87.34.15.18.12.68.33.99,2.12,3.12,4.63,6.69,6.43,9.94.38.69,1.04,4.64,2.17,3.88.31-1.22.51-2.46.75-3.69.69-3.63,1.71-10.02-1.57-12.87-.37-.32-.96-.44-1.04-.53-.12-.14,0-.54-.08-.61Z"/><path class="cls-1" d="M.05,247.23c4.21,1.48,7.18,4.44,10.4,7.34.15.13.49.13.72.34,3.11,2.81,4.8,6.29,9.02,7.78,3,1.06,6.17.73,9.22.83,8.04.27,21.94.89,28.84,4.76,1.39.78,2.65,1.89,4.04,2.68,1.37,1.83,2.8,3.64,3.89,5.7.86,1.63,1.32,3.07,2.13,4.59.35.66,1,1.08.81,1.94H18.63c-.53,0-4.63-2.29-5.38-2.77-2.61-1.68-4.67-3.86-7.19-5.76-.27-.2-2.15-1.77-2.3-1.77H.05v-25.66Z"/><path class="cls-1" d="M370.69,172.32c2.2,1.62,5.06,4.22,7.37,5.46,6.72,3.63,13.36,4.58,18.92,10.65,1.38,1.51,3.65,5.08,3.35,7.11-.21,1.42-1.36,4.56-1.98,5.94-1.91,4.27-6.79,7.59-7.13,12.53-.16,2.39.75,4.28-1.45,5.99-1.83,1.41-5.3,1.8-7.53,1.58-2.77-.28-11-5.2-13.2-7.18-4.08-3.66-6.4-8.71-7.53-14.05-.87-4.11-.68-8.9-2.21-12.67-1.99-4.91-4.18-7.34-4.27-12.96-.03-1.66-.49-3.77.97-5.03,2.18-1.88,7.02-1.68,9.57-.74,2,.74,3.49,2.18,5.13,3.39ZM375.31,189.54c-1.05-.5-3.87-1.82-4.22.03-.47,2.45,1.64,7.18,2.64,9.53,1.25,2.93.78,5.21,2.7,8.38,1.39,2.29,3.26,2.39,5.62,1.2,1.97-1,4.45-5.35,5.28-7.43.19-.46.26-1.42.51-2.12.12-.35.46-.34.5-.51.34-1.4-.39-1.17-.58-1.51-.29-.51-.18-1.53-.92-2.08-.07-.05-1.4-.67-1.48-.69-4.65-.66-6.37-3.05-10.05-4.81Z"/><path class="cls-1" d="M63.04,200.32c5.57,3.45,14.6,6.96,17.8,13.25.79,1.55.9,2.77.45,4.46-.75,2.78-5.22,8.99-7.45,10.9-.17.14-.64.04-.86.21-.46.35-1.03,1.35-1.47,1.65-3.87,2.73-10.38,2.92-14.95,3.52-3.47.45-7.6,2.05-10.87.02-3.76-2.34-5.15-10.2-6.32-14.25-1.74-5.98-2.08-13.43-.95-19.74.13-.72.22-2.54.56-3.16.19-.36,1.76-2.26,2.18-2.61,7.34-6.17,15.85,2.02,21.9,5.76ZM58.18,211.17c-1.8-2.34-4.22-4.13-6.89-5.37-.63-.01-.91,1-1.1,1.53-1.87,5.24.29,12.14,3.11,16.69.36.58,2.09,2.58,2.64,2.94s1.35.61,2.03.63c.37,0,3.68-.69,3.89-.81.15-.08,2.07-2.22,2.22-2.45.79-1.13,1.81-3.65,1.93-5.02.08-.96-.07-2.15-.75-2.88-1.52-1.63-5.61-3.11-7.09-5.26Z"/><path class="cls-1" d="M94.84,185.41c-.14.25-.11,1.17-.01,1.47.19.56,4.38,2.11,5.23,2.44,4.21,1.62,9.79,3.18,13.52,5.43.88.53,2.2,1.71,2.31,2.72.26,2.37.38,4.05-2.29,4.43-4.81.67-12.41-1.31-17.5-1.66-5.9-.41-12.41.26-18.22-.72-.44-.08-.97.09-1.39,0-.19-.04-.19-.41-.33-.47-2.18-1-4.06-1.89-4.52-4.55-.21-1.22.66-3.84,1.67-4.59.98-2.7,3.36-4.45,5.25-6.52.53-1.28-1.56-1.12-2.31-1.04-1.57.18-5.14,1.22-6.57,2.01-.97.54-.79.47-1.94.93-2.54,1.03-6.08,3.07-8.65,1.14-2.74-2.05.91-4.82,2.62-5.97,5.25-3.5,11.95-5.03,17.94-6.76,6.98-2.02,17.91-5.91,24.98-3.54.54.18,3.58,1.45,3.84,1.67.73.64.44,1.91.06,2.68-.4.82-3.74,3.16-4.73,3.91-2.57,1.93-4.64,4.11-7.2,5.99-.32.24-1.61.79-1.74,1.01Z"/><path class="cls-1" d="M40.98,189.84c-.8,1.13-3.48,2.82-4.12,3.92-.2.35-.04.83-.13,1.02-.24.48-.93,1.14-1.2,1.97-1.86,5.74,2.93,16.84-7.3,15.95-1.19-.1-2.36-.74-3.38-.94-2.68-.52-7.54.45-10.22,1.25s-3.58,1.9-6.66,1c-1.43-.42-2.12-1.22-2.74-2.54-1.01-2.17-.71-4.71-1.36-6.99-.54-1.89-1.65-4.12-2.31-6.12-1.21-3.67-3.07-11.65.71-14.36.34-.24.78-.41,1.31-.78,5.3-3.76,8.34-2.98,14.36-2.2,6.57.86,8-2.09,13.5-3.7,2.1-.62,6.37-1.2,8.52-.81.24.04,1.93.75,2.21.9,1.29.69,2.17,1.79,2.21,3.31.05,1.92-2.24,7.48-3.41,9.12ZM17.63,200.64c2.99.82,4.89,2.31,8.15,1.7,3.06-.58,3.59-3.32,3.77-6.06.06-.89.09-3.17-.04-4.01-.03-.16-.74-2-.8-2.09-.08-.11-1.99-1.14-2.3-1.29-.5-.24-3.14-1.28-3.49-1.29-.42-.01-.72.38-1.14.39-1.84.06-3.13.03-4.99.81s-4.21,3.52-3.82,5.59c.58,3.08,2.41,4.36,4.67,6.26Z"/><path class="cls-1" d="M35.19,218.09c3.36,2.91,6.14,8.17,4.26,12.79-.11.28-.5.24-.55.46-2.99,13.44-25.54,21.52-35.85,11.57-3.43-3.32-3.67-8.93-2.22-13.22,4.09-12.06,24.22-20.36,34.35-11.6ZM22.93,228.91c-3.51-4.42-9.97-.93-8.97,4.29.09.49,1.59,2.7,2.05,2.97,4.73,2.82,9.44-1.97,7.37-6.87-.11-.26-.35-.27-.45-.39Z"/><path class="cls-1" d="M113.18,67.46c1.05.38,2.88,1.56,4.14,1.96,5.56,1.78,9.9.19,15.49.58,1.4.1,3.88.63,5.03,1.45.9.64.59,1.3,1.3,1.86.17.94.33,2.06,0,2.99-2.75,7.7-7.82,14.14-14.83,18.32-.2.12-.24.52-.55.66-1.58.66-5.22.18-6.95-.15-2.69-.52-7.75-2.32-9-4.91-.18-.37-1.19-3.22-1.25-3.55-.19-1.14.21-3.03-.73-4.06-.16-.17-3.65-1.67-4.01-1.75-1.69-.35-2.76-.02-4.37-.9-2.41-1.3-4.64-3.77-4.98-6.54-.23-1.9.9-5.1,2.64-6.1,6.02-3.43,11.96-2.08,18.08.13ZM117.97,75.85c-3.41-1.93-10.54-4.18-14.43-4.4-1.2-.07-3.5-.43-2.98,1.3.19.55,2.14.85,2.74,1.1,3.78,1.6,6.28,3.64,9.32,6.16.88.72.28.28.75,1.02,1.19,1.88,3.44,4.46,5.92,4.05,1.29-.21,3.85-2.52,3.8-3.9-.01-.36-.58-1.76-.8-1.98-.2-.2-.71-.27-1.03-.53-.83-.7-2.46-2.34-3.3-2.81Z"/><path class="cls-1" d="M242.45,29.82c1.99,1.67,2.17,1.86,2.98,4.29.07.22.42.12.48.53.06.48.07,2.17-.02,2.6-.04.17-.4.22-.55.47-1.1,1.83-1.28,1.84-3.1,2.65-8.31,3.7-17.91,1.79-26.9,2.07-.73-.26-2.08-.44-2.71-.77-.77-.4-3.24-2.72-3.75-3.56-1.18-1.94-3.31-10.69-3.02-12.78.05-.39,1.07-3.47,1.24-3.67.79-.25,1.07-.79,1.81-1.18,4.86-2.6,11.61-2.61,16.66-.49,4.38,1.84,13.28,6.83,16.89,9.85ZM227.09,29.82c-1.79-1.29-6.26-2.71-8.43-2.49-2.83.29-4.24,2.79-2.62,5.26s8.03,3.72,10.79,3.49c2.31-.19,3.36-2.25,2.24-4.29-.17-.31-1.66-1.76-1.97-1.98Z"/><path class="cls-1" d="M83.91,48.29c.5.22,1.26.61,1.85.9,3.17,1.56,7.15,3.98,9.6,6.47.3.3,1.28,1.23,1.36,1.33.08.09,1.11,2.05,1.13,2.17.46,2.03-.1,3.67-1.83,4.78s-3.29,1.33-5.14.51c-3.69-1.64-7.33-5.34-11-7.47-12.06-6.99-22.19-3.64-34.83-4.98-1.75-.19-3.66-1.1-4.52-2.68-1.06-1.96.82-4.96,2.29-6.32,7.9-7.29,23.49-1.7,32.29,1.72,2.8,1.08,6.06,2.38,8.79,3.57Z"/><path class="cls-1" d="M151.53,95.54c3.67,2.46,7.03,5.47,10.81,7.78,2.11,1.29,4.92,2.14,6.78,3.3.25.16,1.83,1.68,1.95,1.88.53.92.37,4.25-.39,5.15-.97,1.14-4.17,3.95-5.59,4.21-4.57.84-9.49.06-13.75-1.81-3.62-1.59-11.88-9.18-14.34-12.57s-3.74-10.84,1.21-12.45c4.28-1.39,9.89,2.23,13.32,4.52ZM146.67,99.67c-.75-.44-1.01-.63-1.93-1.06-.39-.18-1.87-1.58-2.22-.39-.04.12.55,2.16.65,2.43.16.4,2.1,3.87,2.27,4.08.19.23,4.06,3.63,4.41,3.87.8.55,4.66,2.38,5.48,2.4.39,0,2.47-.75,2.77-1.05,1.62-1.6-2.42-3.67-3.43-4.44-2.73-2.09-4.99-4.07-8.01-5.85Z"/><path class="cls-1" d="M212.96,112.4c-2.93,3.67-12.49,6.68-17.08,7.02s-11.48.79-14.51-3.3c-.64-.87-.66-3.38-.42-4.43.04-.15,1.48-2.38,1.66-2.65,2.62-3.81,11.36-9.06,15.73-10.41,3.99-1.23,12.1-.73,14.68,2.93,1.76,2.49,2.24,5.89,1.08,8.76-.07.17-1.08,2-1.15,2.09ZM191.52,109.43c-1.69,1.77-1.65,3.72,1.05,4.18,3.71.63,7.2-.96,9.92-3.16.31-.25.77-.17,1.05-.63.19-.32.4-1.39.36-1.77-.21-2.18-4.04-1.98-5.61-1.79-.56.07-3.48.86-3.98,1.06-.24.09-2.55,1.85-2.8,2.12Z"/><path class="cls-1" d="M208.61,122.64c3.6,1.8,5.9,5.17,5.12,9.35-.34,1.82-2.92,3.31-4.67,3.49-3.34.34-9.54-.78-12.88-1.5-5.57-1.2-12.32-3.81-17.12-6.37-3.11-1.66-6.38-3.18-8.62-5.78-.23-.27-.63-.16-.84-.41-.15-.17-1-2.11-.96-2.33,1.37-.93,2.27-1.29,3.98-1.1,6.42.69,12.74,2.87,19.19,3.36,5.43.41,11.94-1.13,16.8,1.31Z"/><path class="cls-1" d="M32.34,44.68c.72,1.01,1.34,2.43,1.81,3.59,1.85,4.58,3.17,9.37.29,13.81-3.18,4.89-13.49,8.14-17.81,3.48-1.55-1.66-1.53-4.08-.96-6.18s2.43-3.46,3.21-5.42c1.26-3.14,1.92-10.06,4.69-11.86,1.51-.98,4.57-.73,6.15.06.75.38,2.14,1.85,2.63,2.52Z"/><path class="cls-1" d="M47.24,238.91c.09.12,0,.46.11.58.16.16.59.05.88.44,2.46,3.3,1.85,9.19-1.2,11.96-.86.78-3.12,1.76-4.16,2.32-2.97,1.6-5.28,2.46-8.71,3.28-2.36.56-4.96.89-7.63.76s-8.38-1.12-10.41-2.76c-1.62-1.31-2.21-4.14-.7-5.71,2.19-2.29,5.62-.14,8.25.09,3.31.29,5.11-.65,7.82-2.25,3.24-1.91,5.18-5.31,8.19-7.57,1.82-1.36,2.62-1.88,5.11-1.94.4,0,2.3.6,2.45.8Z"/><path class="cls-1" d="M368.2,283.2c.39-.5,1.05-.72,1.56-1.19,1.51-1.41,3.48-3.53,4.8-5.03,2.33-2.65,3.79-6.15,7.5-7.13,6.35-1.68,18.07.94,23.76,4.15,1.42.8,6.99,4.08,7.87,4.96.17.17.39,1.03.8,1.49.81.92,2.09,1.76,2.87,2.75h-9.47c-.49-.67-3.89-3.48-4.37-3.59-2.48-.56-5.23-1.57-7.87-1.46-3.39.14-8.35,1.53-11.47,2.92-.66.3-3.65,2.12-3.87,2.12h-12.11Z"/><path class="cls-1" d="M338.08,42.83c.02.06.31.07.37.27.23.8.41,3.95-.04,4.57-.15.2-.82.17-1.03.53-.5.86-.72,2.25-1.64,3.28-.46.51-1.47.85-1.77,1.11-.23.21-.18.71-.56,1-2.4,1.85-7.47,2.33-10.36,2.83-4.46.78-6.72,1.77-11.41.24-1.69-.55-2.86-.87-2.9-2.85s.97-3.42,2.5-4.64c.72-.57,3.41-1.77,4.38-2.1,1.37-.46,4.33-.71,5.32-1.15,1.41-.63,5.15-5.26,6.74-6.45,2.82-2.11,6.8-2.69,9.16.39.64.84.91,1.99,1.23,2.97Z"/><path class="cls-1" d="M306.74,105.09c.87,1.04.83,4.14,1.14,5.46.71,3.06,3.98,4.8,2.46,8.45-.04.1-1.36,1.5-1.5,1.61-2.7,2.16-4.59,1.5-7.45,1.91-2.5.35-4.93.46-7.55-.09-1.39-.29-2.63-1.1-4.03-1.38-.98-2.78-.24-5.28,1.88-7.28,1.15-1.08,3.37-2.21,4.32-3.35,1.16-1.39,1.05-2.69,2.87-4.32s3.52-2.57,6.07-1.99c.15.04,1.72.89,1.79.97Z"/><path class="cls-1" d="M359.98,55.11c-.12.11-.51-.01-.6.08-.12.11-.87,2.41-1.2,3.01-.79,1.43-2.4,3.95-4.23,3.67-.14-.02-2.41-1.01-2.52-1.09-.69-.5-3.33-3.32-3.85-4.06-.96-1.36-3.44-5.5-3.59-6.96-.39-3.72.32-4.28,3.39-5.72s5.29-1.5,8.12-2.43c.64-.21,1.7-.98,2.09-1.04.17-.03,2.27.71,2.45.82,1.33.84,2.21,4.47,2.19,5.98-.01,1.34-1.34,6.95-2.24,7.75Z"/><path class="cls-1" d="M234.29,141.16c-.79,1.02-2.85,1.87-4.12,2-5.04.49-8.54-1.25-12.84-3.22-1.9-.87-3.84-.62-3.84-3.61.01-4.68,7.95-8.06,11.89-7.98,4.94.1,9.02,4.36,9.47,9.19.1,1.07.11,2.76-.56,3.63Z"/><path class="cls-1" d="M377.71,220.94l.28.37c4.76,1.91,5.66,6.97,1.61,10.34-1.08.9-4.47,2.53-5.78,2.63-.24.02-3.02-.44-3.16-.52-.12-.07-.18-.52-.4-.67-2.86-2.07-4.98-6.61-4.7-10.2.26-3.4,1.96-5.37,5.52-4.31,2.09.62,4.38,1.95,6.63,2.37Z"/><path class="cls-1" d="M174.26,94.88l.37.27c.22.88.7,1.8,1.47,2.31,1.55,1.03,4.73,1.67,6.08,2.55.11.07,1.26,1.72,1.29,1.83.42,1.45-.34,4.59-1.5,5.59-.08.07-1.41.88-1.49.9-2.21.64-7.85-.42-9.67-1.98-2.47-2.12-2.53-7.3-2.16-10.32.42-3.39,4.82-5.55,5.61-1.15Z"/><path class="cls-1" d="M.05,209.1l.94,2.77c.87,5.59,1.44,9.8-.16,15.4-.13.47-.35,1.49-.79,1.73v-19.9Z"/><path class="cls-1" d="M331.98,283.2l2.29-.7c3.41-.5,6.9-.77,10.25-.01.18.04.15.43.33.47.39.09,1.25-.24,1.27.24h-14.15Z"/></svg>