<?xml version="1.0" encoding="UTF-8"?><svg id="Calque_1" xmlns="http://www.w3.org/2000/svg" viewBox="0 0 1280 1024"><defs><style>.cls-1{fill:#fff;}.cls-2{fill:none;}.cls-3{fill:#fbb03b;}</style></defs><path class="cls-3" d="M1046.75,679.17c14.85-9.6-.58,20.32-2.05,23.25-33.75,67.33-99.5,128.17-165.22,163.63-219.84,118.63-524.3,49.7-633.57-183.77l6.03-3.68c79.87,102.49,202.23,169.98,331.6,185.87,175.02,21.5,330.96-39.3,449.47-166.49,3.03-3.25,12.42-17.95,13.74-18.81Z"/><path class="cls-3" d="M1116.38,717.27c-5.34,5.31-18.14-16.77-21.69-20.6-19.37-20.91-32-29.85-60.43-36.29-5.29-1.2-42.27-2.88-36.35-10.77,53.29-22.68,115.82,7.2,118.46,67.66Z"/><path class="cls-3" d="M301.53,649.61c.64,3.26-.85,5.86-4.03,6.82-7.93,2.39-23.9,1.97-34.26,4.42-34.96,8.28-54.33,27.96-74.17,56.43l-5.87-3.74c6.7-58.36,65.9-86.32,118.33-63.92Z"/><path class="cls-3" d="M1072.86,695.54c4.13,3.75-31.6,63.68-36.67,70.91-5.62,8.02-43.36,54.62-49.16,54.76-1.61.04-4.38-3.52-2.46-7.24,3.15-6.1,28.56-29.11,36.11-38.86,9.22-11.91,18.4-26.23,26.01-39.28,6.7-11.49,11.51-26.48,18.28-37.28,2.76-4.39,2.25-3.36,7.89-3.02Z"/><path class="cls-3" d="M230.24,695.54c4.91-.92,5.31,4.95,6.72,7.74,16.65,33.08,31.84,60.51,56.08,89,4.87,5.73,19.35,16.87,21.84,21.69,1.94,3.76-.9,7.3-2.46,7.24-1.96-.08-24.45-24.05-27.74-27.82-18.11-20.77-43.92-58.63-53.68-84.14-1.11-2.91-6.76-12.58-.76-13.71Z"/><path class="cls-1" d="M346.04,442.31c-5.57,0-10.14-1.79-13.72-5.37-3.58-3.58-5.37-8.15-5.37-13.72v-94.24c0-4.37,1.49-8.05,4.47-11.03,2.98-2.98,6.65-4.47,11.03-4.47h76.34c4.37,0,8.05,1.49,11.03,4.47,2.98,2.98,4.47,6.66,4.47,11.03v67.99h-44.14v-41.75c0-4.77-2.39-7.16-7.16-7.16h-4.77c-4.77,0-7.16,2.39-7.16,7.16v45.33c0,4.38,2.38,6.56,7.16,6.56h36.98c5.56,0,10.14,1.79,13.72,5.37,3.58,3.58,5.37,8.15,5.37,13.72v181.32c0,4.38-1.49,8.05-4.47,11.03-2.98,2.98-6.66,4.47-11.03,4.47h-76.34c-4.38,0-8.05-1.49-11.03-4.47-2.98-2.98-4.47-6.65-4.47-11.03v-154.48h44.14v128.23c0,4.77,2.38,7.16,7.16,7.16h4.77c4.77,0,7.16-2.39,7.16-7.16v-131.81c0-4.77-2.39-7.16-7.16-7.16h-36.98Z"/><path class="cls-1" d="M553.6,476.9c0,4.38-1.49,8.05-4.47,11.03-2.98,2.98-6.66,4.47-11.03,4.47h-47.72v88.87c0,4.77,2.39,7.16,7.16,7.16h4.77c4.77,0,7.16-2.39,7.16-7.16v-69.19h44.14v96.03c0,4.38-1.49,8.05-4.47,11.03-2.98,2.98-6.66,4.47-11.03,4.47h-76.34c-4.38,0-8.05-1.49-11.03-4.47s-4.47-6.65-4.47-11.03v-279.73c0-4.37,1.49-8.05,4.47-11.03,2.98-2.98,6.65-4.47,11.03-4.47h76.34c4.37,0,8.05,1.49,11.03,4.47,2.98,2.98,4.47,6.66,4.47,11.03v148.51ZM497.54,348.07c-4.77,0-7.16,2.39-7.16,7.16v102.59h11.93c4.77,0,7.16-2.39,7.16-7.16v-95.43c0-4.77-2.38-7.16-7.16-7.16h-4.77Z"/><path class="cls-1" d="M609.66,720.85h-44.14v-407.37h91.85c4.37,0,8.05,1.49,11.03,4.47,2.98,2.98,4.47,6.66,4.47,11.03v279.13c0,4.38-1.49,8.05-4.47,11.03s-6.66,4.47-11.03,4.47h-47.71v97.22ZM621.59,588.44c4.77,0,7.16-2.39,7.16-7.16v-226.05c0-4.77-2.39-7.16-7.16-7.16h-11.93v240.37h11.93Z"/><path class="cls-1" d="M792.17,476.9c0,4.38-1.49,8.05-4.47,11.03-2.98,2.98-6.66,4.47-11.04,4.47h-47.71v88.87c0,4.77,2.38,7.16,7.16,7.16h4.77c4.77,0,7.16-2.39,7.16-7.16v-69.19h44.14v96.03c0,4.38-1.49,8.05-4.47,11.03-2.98,2.98-6.66,4.47-11.04,4.47h-76.34c-4.38,0-8.05-1.49-11.03-4.47-2.98-2.98-4.47-6.65-4.47-11.03v-279.73c0-4.37,1.49-8.05,4.47-11.03,2.98-2.98,6.65-4.47,11.03-4.47h76.34c4.37,0,8.05,1.49,11.04,4.47,2.98,2.98,4.47,6.66,4.47,11.03v148.51ZM736.11,348.07c-4.77,0-7.16,2.39-7.16,7.16v102.59h11.93c4.77,0,7.16-2.39,7.16-7.16v-95.43c0-4.77-2.38-7.16-7.16-7.16h-4.77Z"/><path class="cls-1" d="M804.1,623.63V191.81h44.14v431.82h-44.14Z"/><path class="cls-1" d="M860.16,453.05c0-4.37,1.49-8.05,4.47-11.03,2.98-2.98,6.65-4.47,11.03-4.47h47.72v-82.31c0-4.77-2.39-7.16-7.16-7.16h-4.77c-4.77,0-7.16,2.39-7.16,7.16v63.22h-44.14v-89.47c0-4.37,1.49-8.05,4.47-11.03,2.98-2.98,6.65-4.47,11.03-4.47h76.34c4.37,0,8.05,1.49,11.03,4.47,2.98,2.98,4.47,6.66,4.47,11.03v294.64h-91.85c-4.38,0-8.05-1.49-11.03-4.47-2.98-2.98-4.47-6.65-4.47-11.03v-155.07ZM923.38,588.44v-115.71h-11.93c-4.77,0-7.16,2.39-7.16,7.16v101.4c0,4.77,2.39,7.16,7.16,7.16h11.93Z"/><path class="cls-3" d="M454.93,708.9c1.1-2.29,2.74-4.27,4.33-6.26,1.67-6.34,3.97-12.5,5.76-18.84.29-1.19.61-2.38.95-3.57.57-2.01,1.95-3.09,3.5-3.43.38-1.93.84-3.85,1.4-5.75.96-3.29,4.12-4.07,6.61-3.16,1.58-5.94,3.33-11.83,5.01-17.63.4-1.39,1.25-2.34,2.28-2.91.21-3.58.58-7.13,1.48-10.59h-162.51v84.84h128.24c.33-4.41,1.11-8.86,2.96-12.72Z"/><path d="M560.82,636.77v84.84h-116.54c-6.73-14.1-10.49-29.89-10.49-46.55,0-13.48,2.46-26.39,6.98-38.29h120.05Z"/><path class="cls-1" d="M626.7,669.69c10.22-4.31,28.19-10.83,44.32-16,.37-2.71.74-4.68,1.48-5.91.62-.37,1.6-.37,3.08.62,1.23.62,1.72,1.85,1.48,2.34-.25.25-.49.62-.62,1.23,7.39-2.34,14.28-4.19,19.33-5.54,7.51-1.85,17.85-3.45,27.21-3.45,11.2,0,21.17,2.34,23.02,9.73.25,1.48-.98,1.72-1.35.99-3.08-4.92-10.22-7.26-20.07-7.26-7.88,0-17.61,1.48-28.31,4.19-5.42,1.48-12.56,3.45-20.68,5.91-1.85,23.02-1.85,37.55-1.97,55.28,7.14-.12,21.79-.25,30.04-.25h9.36c.98,0,2.34.86,3.08,1.97.98.99.49,1.72-.49,1.72-4.93,0-9.48-.12-13.79-.12-7.51,0-21.54.12-28.07.37l.37,29.67c1.85,2.96,2.71,9.11,2.71,14.4,0,4.92-.74,9.23-1.97,9.36-.98.12-2.34-1.11-2.95-2.09.12-.12,0-.25,0-.37-.99-2.46-1.85-20.19-1.85-23.27-.98-1.35-1.35-2.58-2.21-3.69-6.4-10.71-18.34-19.2-27.82-21.79h-.25c-.62.25-1.6-.12-2.58-.74,0,0-.12-.12-.12-.25-.37-.25-.49-.37-.62-.62-.86-.98-.62-1.85.12-1.97,12.07-1.11,22.53-1.85,33.12-2.22-.12-6.03-.12-11.45-.12-16.5,0-14.28.37-25.73,1.23-37.3-16.37,5.17-34.96,11.82-47.27,17.48-1.35.49-3.69-1.6-2.34-3.69l5.54-2.22ZM669.79,736.42l-.25-20.68c-7.39.25-15.39.74-23.27,1.48,10.09,4.92,18.59,12.43,23.51,19.21Z"/><path class="cls-1" d="M724.93,727.06c-.37-1.11-.62-2.34-.62-3.57,0-5.42,3.69-10.96,9.73-11.2,3.82,0,7.39,3.69,6.03,7.26-1.6,3.94-6.89,6.89-11.2,6.89.37,2.34,4.68,6.28,8.99,6.28,11.57,0,20.19-8.62,25.36-14.03,2.83-2.96,2.34-.12.62,3.32-3.45,7.14-11.33,13.17-19.82,13.66-7.26.37-16.62-.98-19.08-8.62ZM728.75,723.49c5.17-2.34,8.62-5.66,7.26-7.02-2.59-2.59-7.39,3.94-7.26,7.02Z"/><path class="cls-1" d="M763.71,731.25c1.11.25,2.46.37,4.06.37,3.94,0,8.86-.62,12.06-1.35-3.08-1.6-7.76-3.94-10.22-5.29-3.2-1.85-6.65-3.08-7.14-6.77-.98-6.53,12.43-10.46,18.71-11.33,1.97-.25,4.43,2.09,3.45,3.32-4.55,1.6-15.76,3.69-17.11,6.89-.74,1.72,2.09,2.95,4.56,4.43,4.68,2.59,8.37,4.43,10.83,6.4,2.71,2.34.37,5.79-2.83,6.65-2.22.62-5.42.98-8.62.98s-6.03-.37-7.88-1.11c-1.48-.74-2.58-3.82.12-3.2Z"/><path class="cls-1" d="M795.84,729.4c0-7.14.12-13.79.25-18.59.12-5.79.37-13.05.74-20.56-10.22.86-19.82,1.6-29.67,3.32-2.34.37-4.92-2.83-2.83-3.32,8.74-1.6,17.48-2.58,32.62-3.82.49-9.6,1.11-19.33,1.6-26.96-.12-1.97,4.68-1.23,5.05,1.23-.86,6.16-1.6,15.76-2.09,25.36,1.11,0,2.34-.12,3.57-.25,10.46-.74,24.5-1.85,36.56-1.85,7.02,0,13.42.37,17.85,1.35,1.11.49,2.34,1.72,2.83,2.46.12.99-.49,1.48-1.48,1.35-5.54-1.11-12.43-1.48-19.82-1.48-13.17,0-27.58,1.23-36.93,1.97-.99.12-1.85.25-2.83.25l-.86,20.68c-.12,7.88-.49,19.45-.49,30.65,0,12.56.49,24.62,2.09,30.41.37,2.83-3.45.25-4.31-2.34-1.35-4.31-1.85-23.39-1.85-39.89Z"/><path class="cls-1" d="M812.83,721.15c0-3.82.74-7.63,2.09-9.73.12-.62,1.35-.74,2.83-.37,1.35.49,2.09,1.48,1.97,2.09-.98.99-3.45,14.9-1.6,16.5.98.74,2.21,1.11,3.57,1.11,7.63,0,20.68-9.85,24.38-13.54.49-.49,1.72.25.25,2.96-2.34,4.31-13.54,14.03-22.04,14.4-3.08.12-6.4-.62-8.74-3.2-1.85-1.97-2.71-6.16-2.71-10.22ZM816.52,700.72c.25-.37,1.11-2.83,1.35-3.45l.25-1.85c0-.74,1.35-.98,2.59-.49,1.6.37,2.58,1.35,2.34,1.97,0,.49,0,1.35-.37,2.09-.25.62-1.23,3.32-1.6,3.94-.37.49-1.85.49-2.96-.12-1.48-.49-2.22-1.6-1.6-2.09Z"/><path class="cls-1" d="M843.85,718.44c0-1.85.12-3.57.49-5.29.12-.86,1.23-1.23,2.46-.62.74.49,1.72,1.72,1.48,2.58-.49,3.82,0,13.3,2.46,16.25,2.22-.12,6.16-9.48,7.39-13.05-.74-2.59.25-4.56,1.35-5.29,1.48-.62,4.19,1.48,3.08,5.17v.12c2.22.74,4.8,1.11,7.39,1.11,3.94,0,8-.62,11.33-1.11,3.2-.49.98,2.46-1.72,3.45-2.09.74-6.4,1.48-10.34,1.48-3.08,0-6.03-.37-7.76-1.72-1.35,4.56-4.55,11.08-7.63,12.06-2.09.62-3.69,1.11-5.54-.74-3.08-3.69-4.43-9.23-4.43-14.4Z"/><path class="cls-1" d="M874.99,725.21c0-2.71,1.35-5.42,4.43-7.51,3.32-2.22,7.51-3.32,11.82-3.32,3.45,0,6.89.74,9.97,2.09h.12l2.09-2.83c.74-1.35,4.93,1.35,4.06,2.83-.62,1.85-1.72,4.06-1.97,6.4-.12,2.09.49,4.55,2.71,5.17,6.28,1.23,16.87-5.05,21.3-9.97,2.09-2.09,3.94.98-2.83,7.75-3.08,3.08-11.57,7.02-16.74,5.79-4.06-.98-7.14-3.32-8.74-7.76-3.45,3.08-11.57,9.36-18.1,9.36-1.6,0-3.08-.37-4.43-1.23-2.46-1.85-3.69-4.19-3.69-6.77ZM899.12,718.94c-1.23-.37-2.96-.62-4.8-.62-6.16,0-14.28,2.34-15.63,8-.37,1.48.37,2.83,2.22,2.95,5.91-.74,13.91-5.79,18.22-10.34Z"/><path class="cls-1" d="M942.94,737.65c-4.31,0-8-2.09-10.71-6.4-3.82-6.28-5.05-16.37-5.05-26.34,0-13.05,2.09-26.1,3.32-30.65,3.08-11.45,7.39-18.71,14.4-19.08,7.76-.49,10.09,6.4,10.09,14.28,0,5.17-.98,10.71-2.21,14.9-3.57,11.45-7.88,24.38-20.07,36.44,1.48,8.12,4.06,13.42,7.88,13.54,8.86.25,20.93-14.77,23.88-20.07.37-.62,1.72-.25,1.11,2.71-1.11,4.8-9.36,17.24-17.48,19.82-1.85.62-3.57.86-5.17.86ZM931.37,705.64c0,3.94.25,7.76.62,11.08,10.22-11.33,14.03-23.76,16.74-34.35,1.11-4.31,1.97-9.48,1.97-13.91,0-5.79-1.35-10.22-5.17-9.97-5.79.37-8.74,7.76-10.71,16.62-2.34,10.59-3.45,21.17-3.45,30.53Z"/><path class="cls-1" d="M337.89,687.79l24.08-48.05h17.93l-24.71,48.05h-17.3ZM337.89,697.06v-9.28l5.42-4.79h53.58v14.07h-59ZM372.5,713.33v-45.55h16.26v45.55h-16.26Z"/><path class="cls-1" d="M409.78,704.83c-3.02,0-5.69-.62-8.02-1.86-2.33-1.24-4.16-2.97-5.5-5.19-1.34-2.21-2-4.74-2-7.56s.65-5.22,1.95-7.42c1.3-2.2,3.07-3.92,5.33-5.19,2.25-1.26,4.79-1.89,7.62-1.89s5.23.59,7.33,1.78c2.1,1.18,3.76,2.83,4.98,4.93,1.22,2.1,1.83,4.51,1.83,7.22,0,.54-.03,1.08-.09,1.63-.06.55-.18,1.17-.37,1.86l-23.95.11v-6.07l20.17-.12-3.78,2.58c-.04-1.57-.29-2.87-.74-3.92-.46-1.05-1.14-1.86-2.03-2.44-.9-.57-1.98-.86-3.24-.86-1.38,0-2.57.33-3.58.97-1.01.65-1.8,1.55-2.35,2.69-.55,1.15-.83,2.52-.83,4.12s.29,3,.89,4.18c.59,1.18,1.43,2.09,2.52,2.72,1.09.63,2.38.95,3.87.95,1.34,0,2.56-.24,3.67-.72,1.11-.48,2.08-1.19,2.92-2.15l4.87,4.81c-1.38,1.64-3.04,2.86-4.98,3.64-1.95.78-4.11,1.17-6.47,1.17Z"/><rect class="cls-2" x="457.87" y="647.21" width="94.7" height="69.13"/><path class="cls-1" d="M460.89,682.2v-34.03h8.59v34.03h-8.59ZM467.71,655.42v-7.25h18.19v7.25h-18.19ZM467.71,668.38v-7.06h16.7v7.06h-16.7ZM467.71,682.2v-7.25h18.43v7.25h-18.43Z"/><path class="cls-1" d="M496.03,682.2v-34.03h8.59v34.03h-8.59ZM501.79,682.2v-7.39h8.21c1.89,0,3.55-.37,4.99-1.1,1.44-.74,2.54-1.83,3.31-3.29.77-1.46,1.15-3.22,1.15-5.3s-.39-3.78-1.18-5.18c-.79-1.41-1.89-2.49-3.31-3.24s-3.08-1.13-4.97-1.13h-8.54v-7.39h8.59c2.62,0,5.05.41,7.27,1.22,2.22.82,4.15,1.98,5.78,3.48,1.63,1.5,2.9,3.3,3.79,5.38.9,2.08,1.34,4.38,1.34,6.91s-.45,4.84-1.34,6.94c-.9,2.1-2.16,3.9-3.79,5.4-1.63,1.5-3.55,2.66-5.76,3.48-2.21.82-4.61,1.22-7.2,1.22h-8.35Z"/><path class="cls-1" d="M537.59,682.2v-34.03h8.59v34.03h-8.59Z"/><path class="cls-1" d="M458.51,692.22v-5.54h22.07v5.54h-22.07ZM466.29,712.2v-25.34h6.44v25.34h-6.44Z"/><path class="cls-1" d="M483.5,712.2v-25.52h6.44v25.52h-6.44Z"/><path class="cls-1" d="M506.9,712.67c-1.97,0-3.78-.34-5.44-1.01-1.66-.67-3.1-1.61-4.34-2.81s-2.2-2.61-2.9-4.23c-.7-1.62-1.04-3.37-1.04-5.24s.34-3.61,1.03-5.2c.68-1.6,1.64-3,2.86-4.21,1.22-1.21,2.66-2.14,4.32-2.79,1.66-.65,3.47-.97,5.44-.97s3.78.32,5.44.97c1.66.65,3.1,1.58,4.32,2.79,1.22,1.21,2.18,2.62,2.86,4.23.68,1.61,1.03,3.35,1.03,5.22s-.34,3.61-1.03,5.22c-.68,1.61-1.64,3.02-2.86,4.23-1.22,1.21-2.66,2.15-4.3,2.81-1.64.66-3.44.99-5.38.99ZM506.83,706.91c1.42,0,2.66-.31,3.73-.94,1.07-.62,1.88-1.5,2.45-2.63s.85-2.45.85-3.96c0-1.1-.16-2.11-.49-3.02s-.8-1.7-1.42-2.36c-.62-.66-1.37-1.16-2.23-1.51-.86-.35-1.82-.52-2.88-.52-1.42,0-2.65.31-3.71.92-1.06.61-1.88,1.48-2.47,2.59-.59,1.12-.88,2.42-.88,3.91,0,1.15.16,2.19.49,3.11.32.92.8,1.72,1.42,2.38.62.66,1.37,1.16,2.25,1.51.88.35,1.84.52,2.9.52Z"/><path class="cls-1" d="M523.71,712.2v-25.52h4.5l1.94,5.26v20.27h-6.44ZM541.31,712.2l-14.9-18.9,1.8-6.62,14.94,18.9-1.84,6.62ZM541.31,712.2l-1.66-5.36v-20.16h6.44v25.52h-4.79Z"/></svg>